<?xml version="1.0" encoding="utf-8"?>
<!-- Generator: Adobe Illustrator 24.1.3, SVG Export Plug-In . SVG Version: 6.00 Build 0)  -->
<svg version="1.1" id="Layer_1" xmlns="http://www.w3.org/2000/svg" xmlns:xlink="http://www.w3.org/1999/xlink" x="0px" y="0px"
	 viewBox="0 0 162.2 162.4" style="enable-background:new 0 0 162.2 162.4;" xml:space="preserve">
<style type="text/css">
	.st0{fill:#067781;}
</style>
<g id="Layer_2_1_">
	<g id="Ñëîé_2">
		<path class="st0" d="M33.2,162.3L33.2,162.3C25,160.9,19,154,18.6,145.8l-2.9-51.7c-0.6-9.7,6.6-18,16-18.6c1.1-0.1,2.3,0,3.4,0.2
			c8.1,1.4,14.2,8.2,14.6,16.5l2.9,51.7c0.5,9.7-6.6,18-16,18.6C35.5,162.5,34.3,162.4,33.2,162.3z M33.3,87.3c-0.3,0-0.7,0-1,0
			c-2.9,0.2-5.1,3-5,6.2l2.9,51.7c0.1,2.7,2,5,4.6,5.5l0,0c0.3,0,0.7,0,1,0c2.9-0.2,5.1-3,5-6.2l-3-51.7
			C37.8,90.2,35.9,87.9,33.3,87.3z"/>
		<path class="st0" d="M20.9,150c-11.1-1.7-20-13.7-20.9-29.1c-0.5-7.4,1.1-14.7,4.8-21.1c3.9-6.4,9.9-10.3,16.3-10.7l0.7,11.7
			c-3.5,0.2-5.8,3.3-6.9,5.1c-2.4,4.4-3.5,9.3-3.1,14.3c0.6,11.1,6.9,18.4,12.2,18.1l0.7,11.7C23.4,150.2,22.2,150.2,20.9,150z"/>
		<path class="st0" d="M125.7,162.4c-9.4-0.5-16.6-8.9-16-18.6l2.9-51.7c0.4-8.2,6.5-15.1,14.6-16.5c1.1-0.2,2.3-0.2,3.4-0.2
			c9.4,0.5,16.6,8.9,16,18.6l-2.9,51.7c-0.4,8.2-6.5,15.1-14.6,16.5l0,0C127.9,162.4,126.8,162.5,125.7,162.4z M124.3,92.9
			l-2.9,51.7c-0.2,3.2,2.1,6,5,6.2c0.3,0,0.7,0,1,0l0,0c2.6-0.6,4.6-2.8,4.6-5.5l2.9-51.7c0.2-3.2-2.1-6-4.9-6.2c-0.3,0-0.7,0-1,0
			C126.3,87.9,124.4,90.1,124.3,92.9z"/>
		<path class="st0" d="M141.3,150c11.1-1.7,20-13.6,20.9-29.1c0.5-7.4-1.2-14.7-4.9-21.1c-3.9-6.4-9.9-10.3-16.3-10.7l-0.7,11.7
			c3.5,0.2,5.8,3.3,6.9,5.1c2.4,4.4,3.5,9.3,3.1,14.3c-0.6,11.1-6.9,18.4-12.2,18.1l-0.7,11.7C138.8,150.3,140.1,150.2,141.3,150z"
			/>
		<path class="st0" d="M155.7,98.1l-11.5-2.3c0.9-4.8,1.4-9.6,1.4-14.4c0-38.4-28.9-69.7-64.4-69.7S16.7,43,16.7,81.4
			c0,4.7,0.4,9.5,1.3,14.1L6.5,97.8C5.5,92.4,5,86.9,5,81.4C5,36.5,39.1,0,81.1,0s76.1,36.5,76.1,81.4
			C157.3,87,156.7,92.6,155.7,98.1z"/>
	</g>
</g>
</svg>
